<?xml version="1.0" encoding="utf-8"?>
<!-- Generator: Adobe Illustrator 16.0.0, SVG Export Plug-In . SVG Version: 6.00 Build 0)  -->
<!DOCTYPE svg PUBLIC "-//W3C//DTD SVG 1.1//EN" "http://www.w3.org/Graphics/SVG/1.1/DTD/svg11.dtd">
<svg version="1.1" id="Calque_1" xmlns="http://www.w3.org/2000/svg" xmlns:xlink="http://www.w3.org/1999/xlink" x="0px" y="0px"
	 width="143.999px" height="144px" viewBox="0 0 143.999 144" enable-background="new 0 0 143.999 144" xml:space="preserve">
<g>
	<path fill="#EDCD24" d="M143.999,72c0-39.766-32.234-72-72-72C32.235,0,0,32.234,0,72c0,39.768,32.235,72,71.999,72
		C111.765,144,143.999,111.768,143.999,72z"/>
</g>
<g>
	<g>
		<path fill="#3C1441" d="M71.807,103.441c-1.381,0-2.5-1.119-2.5-2.5v-61c0-1.381,1.119-2.5,2.5-2.5s2.5,1.119,2.5,2.5v61
			C74.307,102.322,73.188,103.441,71.807,103.441z"/>
	</g>
	<g>
		<path fill="#3C1441" d="M72,106.559c-0.64,0-1.279-0.244-1.768-0.732L47.783,83.379c-0.977-0.976-0.977-2.559,0-3.535
			s2.559-0.977,3.535,0l22.449,22.447c0.977,0.976,0.977,2.559,0,3.535C73.279,106.314,72.64,106.559,72,106.559z"/>
	</g>
	<g>
		<path fill="#3C1441" d="M72,106.559c-0.64,0-1.279-0.244-1.768-0.732c-0.977-0.977-0.977-2.56,0-3.535l22.449-22.447
			c0.977-0.977,2.559-0.977,3.535,0s0.977,2.56,0,3.535l-22.449,22.447C73.279,106.314,72.64,106.559,72,106.559z"/>
	</g>
</g>
</svg>
