<?xml version="1.0" encoding="utf-8"?>
<!-- Generator: Adobe Illustrator 16.0.0, SVG Export Plug-In . SVG Version: 6.00 Build 0)  -->
<!DOCTYPE svg PUBLIC "-//W3C//DTD SVG 1.1//EN" "http://www.w3.org/Graphics/SVG/1.1/DTD/svg11.dtd">
<svg version="1.1" id="Calque_1" xmlns="http://www.w3.org/2000/svg" xmlns:xlink="http://www.w3.org/1999/xlink" x="0px" y="0px"
	 width="25.896px" height="31.274px" viewBox="0 0 25.896 31.274" enable-background="new 0 0 25.896 31.274" xml:space="preserve">
<g>
	<g>
		<path fill="#3C1441" d="M12.948,31.274l-9.16-9.16c-5.051-5.051-5.051-13.269,0-18.32C6.235,1.348,9.488,0,12.948,0
			s6.713,1.348,9.16,3.794c5.051,5.052,5.051,13.27,0,18.32L12.948,31.274z M12.948,3c-2.659,0-5.159,1.035-7.039,2.915
			c-3.881,3.882-3.881,10.197,0,14.078l7.039,7.039l7.039-7.039c3.881-3.881,3.881-10.196,0-14.078C18.107,4.035,15.607,3,12.948,3z
			"/>
	</g>
	<g>
		<circle fill="#3C1441" cx="12.948" cy="13.454" r="4.5"/>
	</g>
</g>
</svg>
