<?xml version="1.0" encoding="utf-8"?>
<!-- Generator: Adobe Illustrator 16.0.0, SVG Export Plug-In . SVG Version: 6.00 Build 0)  -->
<!DOCTYPE svg PUBLIC "-//W3C//DTD SVG 1.1//EN" "http://www.w3.org/Graphics/SVG/1.1/DTD/svg11.dtd">
<svg version="1.1" id="Calque_1" xmlns="http://www.w3.org/2000/svg" xmlns:xlink="http://www.w3.org/1999/xlink" x="0px" y="0px"
	 width="144px" height="144px" viewBox="0 0 144 144" enable-background="new 0 0 144 144" xml:space="preserve">
<g>
	<g>
		<circle fill="#EDCD24" cx="72" cy="72" r="72"/>
	</g>
	<g>
		<g>
			<path fill="#3C1441" d="M107.241,104.946H36.758c-3.262,0-5.915-2.654-5.915-5.916V51.285c0-3.262,2.653-5.916,5.915-5.916h0.401
				v-6.316h26.104v6.316h43.979c3.262,0,5.915,2.654,5.915,5.916V99.03C113.156,102.292,110.503,104.946,107.241,104.946z
				 M36.758,49.369c-1.056,0-1.915,0.859-1.915,1.916V99.03c0,1.057,0.859,1.916,1.915,1.916h70.483
				c1.056,0,1.915-0.859,1.915-1.916V51.285c0-1.057-0.859-1.916-1.915-1.916H59.263v-6.316H41.159v6.316H36.758z M79.578,97.367
				c-12.246,0-22.209-9.963-22.209-22.209c0-12.247,9.963-22.211,22.209-22.211c12.248,0,22.212,9.964,22.212,22.211
				C101.79,87.404,91.826,97.367,79.578,97.367z M79.578,56.947c-10.04,0-18.209,8.169-18.209,18.211
				c0,10.04,8.169,18.209,18.209,18.209c10.042,0,18.212-8.169,18.212-18.209C97.79,65.116,89.62,56.947,79.578,56.947z"/>
		</g>
		<g>
			<path fill="#3C1441" d="M79.578,89.136c-7.707,0-13.977-6.271-13.977-13.978c0-7.708,6.27-13.979,13.977-13.979
				c7.708,0,13.979,6.271,13.979,13.979C93.557,82.865,87.286,89.136,79.578,89.136z M79.578,65.18
				c-5.501,0-9.977,4.477-9.977,9.979s4.476,9.978,9.977,9.978c5.502,0,9.979-4.476,9.979-9.978S85.08,65.18,79.578,65.18z"/>
		</g>
	</g>
</g>
</svg>
