<?xml version="1.0" encoding="utf-8"?>
<!-- Generator: Adobe Illustrator 16.0.0, SVG Export Plug-In . SVG Version: 6.00 Build 0)  -->
<!DOCTYPE svg PUBLIC "-//W3C//DTD SVG 1.1//EN" "http://www.w3.org/Graphics/SVG/1.1/DTD/svg11.dtd">
<svg version="1.1" id="Calque_1" xmlns="http://www.w3.org/2000/svg" xmlns:xlink="http://www.w3.org/1999/xlink" x="0px" y="0px"
	 width="218.061px" height="50.135px" viewBox="0 0 218.061 50.135" enable-background="new 0 0 218.061 50.135"
	 xml:space="preserve">
<g>
	<g>
		<path fill="#17C188" d="M0,1.212h15.566c2.74,0,5.211,0.248,7.412,0.741c2.201,0.496,4.088,1.305,5.66,2.426
			c1.573,1.123,2.787,2.562,3.64,4.312c0.854,1.754,1.28,3.865,1.28,6.336c0,2.65-0.495,4.874-1.482,6.67
			c-0.988,1.798-2.324,3.247-4.01,4.348c-1.685,1.101-3.65,1.898-5.896,2.392c-2.247,0.495-4.627,0.741-7.143,0.741H8.491v19.744H0
			V1.212z M14.42,22.034c1.394,0,2.719-0.101,3.977-0.302c1.258-0.203,2.381-0.562,3.369-1.078s1.775-1.225,2.359-2.123
			s0.876-2.066,0.876-3.504c0-1.393-0.292-2.527-0.876-3.403s-1.36-1.562-2.325-2.056c-0.966-0.494-2.066-0.819-3.302-0.977
			c-1.236-0.157-2.505-0.236-3.808-0.236H8.491v13.679H14.42z"/>
		<path fill="#17C188" d="M38.074,5.593c0-1.302,0.482-2.437,1.448-3.403c0.966-0.965,2.19-1.449,3.673-1.449
			s2.729,0.462,3.739,1.382c1.011,0.921,1.517,2.079,1.517,3.471c0,1.393-0.506,2.55-1.517,3.47
			c-1.01,0.922-2.257,1.383-3.739,1.383s-2.707-0.483-3.673-1.449C38.557,8.029,38.074,6.896,38.074,5.593z M39.22,16.576h8.086
			v32.346H39.22V16.576z"/>
	</g>
	<path fill="#17C188" d="M69.071,23.45L54.246,1.212h10.242l9.839,16.308L84.03,1.212h9.771l-14.555,22.44l17.116,25.27H85.648
		L73.99,30.189L62.805,48.922H52.561L69.071,23.45z"/>
	<g>
		<path fill="#3C1441" d="M127.057,14.588c-1.281-3.076-3.066-5.693-5.357-7.85c-2.291-2.157-5.01-3.817-8.154-4.986
			C110.4,0.584,106.963,0,103.234,0c-1.172,0-2.307,0.081-3.422,0.199l-7.494,11.554c1.256-1.179,2.648-2.193,4.279-2.926
			c1.998-0.898,4.232-1.349,6.705-1.349c2.471,0,4.717,0.45,6.738,1.349c2.021,0.899,3.75,2.134,5.188,3.706
			c1.438,1.574,2.55,3.415,3.337,5.525c0.785,2.112,1.178,4.404,1.178,6.873c0,2.562-0.393,4.91-1.178,7.043
			c-0.787,2.135-1.911,3.986-3.37,5.56c-1.461,1.573-3.201,2.796-5.223,3.672s-4.245,1.313-6.671,1.313s-4.639-0.438-6.638-1.313
			c-0.054-0.022-0.103-0.054-0.155-0.077l6.082,8.979c0.217,0.005,0.425,0.027,0.643,0.027c3.729,0,7.166-0.618,10.311-1.854
			c3.145-1.234,5.863-2.965,8.154-5.188s4.076-4.873,5.357-7.95c1.28-3.078,1.92-6.48,1.92-10.211
			C128.977,21.114,128.337,17.666,127.057,14.588z"/>
	</g>
	<path fill="#3C1441" d="M175.204,31.402c0,2.875-0.495,5.469-1.482,7.783c-0.989,2.313-2.336,4.277-4.043,5.896
		c-1.709,1.616-3.729,2.864-6.064,3.74c-2.336,0.876-4.875,1.313-7.615,1.313c-2.741,0-5.278-0.438-7.615-1.313
		c-2.336-0.876-4.369-2.124-6.099-3.74c-1.729-1.618-3.076-3.582-4.042-5.896c-0.968-2.314-1.448-4.908-1.448-7.783V1.212h8.49
		v29.853c0,1.393,0.178,2.774,0.539,4.145c0.358,1.371,0.953,2.594,1.785,3.672c0.83,1.078,1.931,1.955,3.302,2.629
		c1.37,0.674,3.066,1.01,5.088,1.01s3.717-0.336,5.088-1.01c1.37-0.674,2.471-1.551,3.301-2.629
		c0.832-1.078,1.426-2.301,1.787-3.672c0.359-1.37,0.539-2.752,0.539-4.145V1.212h8.49V31.402z"/>
	<path fill="#3C1441" d="M194.946,8.625h-14.621V1.212h37.735v7.413h-14.622v40.297h-8.492V8.625z"/>
</g>
</svg>
