<?xml version="1.0" encoding="utf-8"?>
<!-- Generator: Adobe Illustrator 16.0.0, SVG Export Plug-In . SVG Version: 6.00 Build 0)  -->
<!DOCTYPE svg PUBLIC "-//W3C//DTD SVG 1.1//EN" "http://www.w3.org/Graphics/SVG/1.1/DTD/svg11.dtd">
<svg version="1.1" id="Calque_1" xmlns="http://www.w3.org/2000/svg" xmlns:xlink="http://www.w3.org/1999/xlink" x="0px" y="0px"
	 width="143.999px" height="144px" viewBox="0 0 143.999 144" enable-background="new 0 0 143.999 144" xml:space="preserve">
<path fill="#EDCD24" d="M143.999,72c0-39.766-32.234-72-72-72C32.235,0,0,32.234,0,72c0,39.768,32.235,72,71.999,72
	C111.765,144,143.999,111.768,143.999,72z"/>
<g>
	<path fill="#3C1441" d="M58.973,94.483c-2.781,0.68-5.811,1.021-9.09,1.021c-3.4,0-6.531-0.54-9.391-1.62s-5.32-2.6-7.379-4.56
		c-2.062-1.96-3.671-4.311-4.83-7.051c-1.161-2.739-1.74-5.79-1.74-9.149c0-3.399,0.59-6.48,1.77-9.24s2.81-5.109,4.891-7.05
		c2.078-1.939,4.52-3.43,7.319-4.47s5.82-1.561,9.06-1.561c3.36,0,6.48,0.51,9.36,1.53c2.88,1.02,5.22,2.391,7.021,4.109
		l-6.48,7.381c-1-1.16-2.32-2.109-3.96-2.851c-1.641-0.739-3.501-1.109-5.58-1.109c-1.8,0-3.46,0.329-4.979,0.989
		c-1.521,0.66-2.841,1.581-3.961,2.761c-1.119,1.18-1.99,2.579-2.609,4.199c-0.621,1.62-0.93,3.391-0.93,5.311
		c0,1.96,0.279,3.76,0.84,5.399c0.56,1.641,1.389,3.051,2.49,4.23c1.1,1.181,2.459,2.1,4.08,2.76c1.619,0.66,3.469,0.99,5.549,0.99
		c1.201,0,2.341-0.09,3.421-0.271c1.079-0.18,2.079-0.47,3-0.869v-7.74h-8.101v-8.28h17.521v22.5
		C64.182,92.924,61.752,93.804,58.973,94.483z"/>
	<path fill="#3C1441" d="M118.942,73.004c0,3.36-0.581,6.431-1.74,9.21c-1.161,2.78-2.771,5.16-4.83,7.14
		c-2.061,1.98-4.511,3.511-7.35,4.59c-2.841,1.08-5.921,1.62-9.24,1.62c-3.321,0-6.39-0.54-9.21-1.62
		c-2.82-1.079-5.26-2.609-7.32-4.59c-2.061-1.979-3.67-4.359-4.83-7.14c-1.16-2.779-1.74-5.85-1.74-9.21
		c0-3.399,0.58-6.47,1.74-9.21c1.16-2.739,2.77-5.07,4.83-6.99s4.5-3.399,7.32-4.439s5.889-1.561,9.21-1.561
		c3.319,0,6.399,0.521,9.24,1.561c2.839,1.04,5.289,2.52,7.35,4.439c2.06,1.92,3.669,4.251,4.83,6.99
		C118.361,66.534,118.942,69.604,118.942,73.004z M107.963,73.004c0-1.84-0.301-3.56-0.9-5.16c-0.6-1.6-1.431-2.97-2.49-4.11
		c-1.061-1.14-2.34-2.04-3.84-2.699c-1.5-0.66-3.15-0.99-4.95-0.99s-3.44,0.33-4.92,0.99c-1.48,0.659-2.761,1.56-3.84,2.699
		c-1.08,1.141-1.911,2.511-2.49,4.11c-0.58,1.601-0.87,3.32-0.87,5.16c0,1.92,0.301,3.689,0.9,5.31s1.43,3.011,2.49,4.17
		c1.059,1.161,2.329,2.07,3.81,2.73c1.479,0.66,3.12,0.99,4.92,0.99s3.439-0.33,4.92-0.99c1.479-0.66,2.761-1.569,3.84-2.73
		c1.08-1.159,1.921-2.55,2.521-4.17S107.963,74.924,107.963,73.004z"/>
</g>
</svg>
